<?xml version="1.0" encoding="utf-8"?>
<!-- Generator: Adobe Illustrator 24.1.1, SVG Export Plug-In . SVG Version: 6.00 Build 0)  -->
<svg version="1.1" xmlns="http://www.w3.org/2000/svg" xmlns:xlink="http://www.w3.org/1999/xlink" x="0px" y="0px"
	 viewBox="0 0 1366 1366" style="enable-background:new 0 0 1366 1366;" xml:space="preserve">
<style type="text/css">
	.st0{fill:#F0E8D5;}
	.st1{fill:none;stroke:#02267C;stroke-width:15;stroke-miterlimit:10;}
</style>
<g id="Capa_1">
	<g>
		<rect x="1.5" y="1.8" class="st0" width="1363.6" height="1364"/>
	</g>
</g>
<g id="Capa_2">
	<g>
		<g>
			<line class="st1" x1="7" y1="9.2" x2="7" y2="690.6"/>
			<line class="st1" x1="142.4" y1="7.6" x2="142.4" y2="684.4"/>
			<line class="st1" x1="277.7" y1="5.9" x2="277.7" y2="685.6"/>
			<line class="st1" x1="413.1" y1="7.6" x2="413.1" y2="683.6"/>
			<line class="st1" x1="548.4" y1="9.2" x2="548.4" y2="683.6"/>
			<line class="st1" x1="683.7" y1="0.9" x2="683.7" y2="690.8"/>
		</g>
		<g>
			<line class="st1" x1="1" y1="684.3" x2="684.4" y2="684.3"/>
			<line class="st1" x1="6.8" y1="548.9" x2="682.8" y2="548.9"/>
			<line class="st1" x1="7.2" y1="413.6" x2="682.8" y2="413.6"/>
			<line class="st1" x1="7.2" y1="278.3" x2="682.8" y2="278.3"/>
			<line class="st1" x1="6.8" y1="142.9" x2="681.1" y2="142.9"/>
			<line class="st1" x1="-5.5" y1="7.6" x2="684.4" y2="7.6"/>
		</g>
	</g>
	<g>
		<g>
			<line class="st1" x1="684" y1="9.2" x2="684" y2="690.6"/>
			<line class="st1" x1="819.4" y1="7.6" x2="819.4" y2="684.4"/>
			<line class="st1" x1="954.7" y1="5.9" x2="954.7" y2="685.6"/>
			<line class="st1" x1="1090.1" y1="7.6" x2="1090.1" y2="683.6"/>
			<line class="st1" x1="1225.4" y1="9.2" x2="1225.4" y2="683.6"/>
			<line class="st1" x1="1360.7" y1="-5" x2="1360.7" y2="690.8"/>
		</g>
		<g>
			<line class="st1" x1="678" y1="684.3" x2="1361.4" y2="684.3"/>
			<line class="st1" x1="683.8" y1="548.9" x2="1359.8" y2="548.9"/>
			<line class="st1" x1="684.2" y1="413.6" x2="1359.8" y2="413.6"/>
			<line class="st1" x1="684.2" y1="278.3" x2="1359.8" y2="278.3"/>
			<line class="st1" x1="683.8" y1="142.9" x2="1358.1" y2="142.9"/>
			<line class="st1" x1="677.6" y1="7.6" x2="1361.4" y2="7.6"/>
		</g>
	</g>
	<g>
		<g>
			<line class="st1" x1="7" y1="686.4" x2="7" y2="1374.1"/>
			<line class="st1" x1="142.4" y1="684.7" x2="142.4" y2="1361.6"/>
			<line class="st1" x1="277.7" y1="683.1" x2="277.7" y2="1362.8"/>
			<line class="st1" x1="413.1" y1="684.7" x2="413.1" y2="1360.7"/>
			<line class="st1" x1="548.4" y1="686.4" x2="548.4" y2="1360.7"/>
			<line class="st1" x1="683.7" y1="678.1" x2="683.7" y2="1367.9"/>
		</g>
		<g>
			<line class="st1" x1="1" y1="1361.5" x2="684.4" y2="1361.5"/>
			<line class="st1" x1="6.8" y1="1226.1" x2="682.8" y2="1226.1"/>
			<line class="st1" x1="7.2" y1="1090.8" x2="682.8" y2="1090.8"/>
			<line class="st1" x1="7.2" y1="955.5" x2="682.8" y2="955.5"/>
			<line class="st1" x1="6.8" y1="820.1" x2="681.1" y2="820.1"/>
			<line class="st1" x1="0.6" y1="684.8" x2="684.4" y2="684.8"/>
		</g>
	</g>
	<g>
		<g>
			<line class="st1" x1="684" y1="686.4" x2="684" y2="1367.8"/>
			<line class="st1" x1="819.4" y1="684.7" x2="819.4" y2="1361.6"/>
			<line class="st1" x1="954.7" y1="683.1" x2="954.7" y2="1362.8"/>
			<line class="st1" x1="1090.1" y1="684.7" x2="1090.1" y2="1360.7"/>
			<line class="st1" x1="1225.4" y1="686.4" x2="1225.4" y2="1360.7"/>
			<line class="st1" x1="1360.7" y1="678.1" x2="1360.7" y2="1374.1"/>
		</g>
		<g>
			<line class="st1" x1="678" y1="1361.5" x2="1361.4" y2="1361.5"/>
			<line class="st1" x1="683.8" y1="1226.1" x2="1359.8" y2="1226.1"/>
			<line class="st1" x1="684.2" y1="1090.8" x2="1359.8" y2="1090.8"/>
			<line class="st1" x1="684.2" y1="955.5" x2="1359.8" y2="955.5"/>
			<line class="st1" x1="683.8" y1="820.1" x2="1358.1" y2="820.1"/>
			<line class="st1" x1="677.6" y1="684.8" x2="1361.4" y2="684.8"/>
		</g>
	</g>
</g>
</svg>
