<?xml version="1.0" encoding="utf-8"?>
<!-- Generator: Adobe Illustrator 24.1.1, SVG Export Plug-In . SVG Version: 6.00 Build 0)  -->
<svg version="1.1" xmlns="http://www.w3.org/2000/svg" xmlns:xlink="http://www.w3.org/1999/xlink" x="0px" y="0px"
	 viewBox="0 0 300 550" style="enable-background:new 0 0 300 550;" xml:space="preserve">
<style type="text/css">
	.st0{fill:#02267C;}
</style>
<g id="Capa_1">
	<path class="st0" d="M265,89c-0.3,0-0.7,0-1,0C264.3,89,264.7,89,265,89c10,0.6,18,8.9,18,19c0,10.2-8,18.5-18,19c-0.3,0-0.7,0-1,0
		c0.3,0,0.7,0,1,0c10,0.5,18,8.8,18,19s-8,18.5-18,19c-0.3,0-0.7,0-1,0c0.3,0,0.7,0,1,0c10,0.5,18,8.8,18,19s-8,18.5-18,19
		c-0.3,0-0.7,0-1,0c0.3,0,0.7,0,1,0c10,0.5,18,8.8,18,19s-8,18.5-18,19l0,0c10,0.5,18,8.8,18,19c0,10.2-8,18.5-18,19
		c-0.3,0-0.7,0-1,0c0.3,0,0.7,0,1,0c10,0.5,18,8.8,18,19s-8,18.5-18,19c-0.3,0-0.7,0-1,0c0.3,0,0.7,0,1,0c10,0.5,18,8.8,18,19
		s-8,18.5-18,19c-0.3,0-0.7,0-1,0c0.3,0,0.7,0,1,0c10,0.5,18,8.8,18,19s-8,18.5-18,19c-0.3,0-0.7,0-1,0c0.3,0,0.7,0,1,0
		c10,0.5,18,8.8,18,19s-8,18.5-18,19c-0.3,0-0.7,0-1,0c0.3,0,0.7,0,1,0c10,0.5,18,8.8,18,19s-8,18.5-18,19c-0.3,0-0.7,0-1,0
		c0.3,0,0.7,0,1,0c10,0.5,18,8.8,18,19s-8,18.5-18,19c-0.3,0-0.7,0-1,0c0.3,0,0.7,0,1,0c10,0.5,18,8.8,18,19c0,10.5-8.5,19-19,19
		s-19-8.5-19-19c0,10.5-8.5,19-19,19s-19-8.5-19-19c0,10.5-8.5,19-19,19s-19-8.5-19-19c0,10.5-8.5,19-19,19s-19-8.5-19-19
		c0,10.5-8.5,19-19,19s-19-8.5-19-19c0,10.5-8.5,19-19,19s-19-8.5-19-19c0,10.5-8.5,19-19,19s-19-8.5-19-19c0-10.2,8-18.5,18-19
		c0.3,0,0.7,0,1,0c-0.3,0-0.7,0-1,0c-10-0.5-18-8.8-18-19s8-18.5,18-19c0.3,0,0.7,0,1,0c-0.3,0-0.7,0-1,0c-10-0.5-18-8.8-18-19
		s8-18.5,18-19c0.3,0,0.7,0,1,0c-0.3,0-0.7,0-1,0c-10-0.5-18-8.8-18-19s8-18.5,18-19c0.3,0,0.7,0,1,0c-0.3,0-0.7,0-1,0
		c-10-0.5-18-8.8-18-19s8-18.5,18-19c0.3,0,0.7,0,1,0c-0.3,0-0.7,0-1,0c-10-0.5-18-8.8-18-19s8-18.5,18-19c0.3,0,0.7,0,1,0
		c-0.3,0-0.7,0-1,0c-10-0.5-18-8.8-18-19s8-18.5,18-19c0.3,0,0.7,0,1,0c-0.3,0-0.7,0-1,0c-10-0.5-18-8.8-18-19c0-10.2,8-18.5,18-19
		c0.3,0,0.7,0,1,0c-0.3,0-0.7,0-1,0c-10-0.5-18-8.8-18-19s8-18.5,18-19c0.3,0,0.7,0,1,0c-0.3,0-0.7,0-1,0c-10-0.5-18-8.8-18-19
		s8-18.5,18-19c0.3,0,0.7,0,1,0c-0.3,0-0.7,0-1,0c-10-0.5-18-8.8-18-19s8-18.5,18-19c0.3,0,0.7,0,1,0c-0.3,0-0.7,0-1,0
		c-10-0.5-18-8.8-18-19s8-18.5,18-19c0.3,0,0.7,0,1,0c-0.3,0-0.7,0-1,0c-10-0.5-18-8.8-18-19s8-18.5,18-19c0.3,0,0.7,0,1,0
		c-0.3,0-0.7,0-1,0c-10-0.5-18-8.8-18-19c0-10.5,8.5-19,19-19s19,8.5,19,19c0-10.5,8.5-19,19-19s19,8.5,19,19c0-10.5,8.5-19,19-19
		s19,8.5,19,19c0-10.5,8.5-19,19-19s19,8.5,19,19c0-10.5,8.5-19,19-19s19,8.5,19,19c0-10.5,8.5-19,19-19s19,8.5,19,19
		c0-10.5,8.5-19,19-19s19,8.5,19,19c0,10.2-8,18.5-18,19c-0.3,0-0.7,0-1,0c0.3,0,0.7,0,1,0c10,0.5,18,8.8,18,19S275,88.5,265,89z"/>
	<path class="st0" d="M149.5,507c0.3,0,0.7,0,1,0C150.2,507,149.8,507,149.5,507L149.5,507z"/>
	<path class="st0" d="M149.5,469c0.3,0,0.7,0,1,0C150.2,469,149.8,469,149.5,469L149.5,469z"/>
	<path class="st0" d="M149.5,431c0.3,0,0.7,0,1,0C150.2,431,149.8,431,149.5,431L149.5,431z"/>
	<path class="st0" d="M149.5,393c0.3,0,0.7,0,1,0C150.2,393,149.8,393,149.5,393L149.5,393z"/>
	<path class="st0" d="M149.5,355c0.3,0,0.7,0,1,0C150.2,355,149.8,355,149.5,355L149.5,355z"/>
	<path class="st0" d="M149.5,317c0.3,0,0.7,0,1,0C150.2,317,149.8,317,149.5,317L149.5,317z"/>
	<path class="st0" d="M149.5,279c0.3,0,0.7,0,1,0C150.2,279,149.8,279,149.5,279L149.5,279z"/>
	<path class="st0" d="M149.5,241c0.3,0,0.7,0,1,0C150.2,241,149.8,241,149.5,241L149.5,241z"/>
	<path class="st0" d="M149.5,203c0.3,0,0.7,0,1,0C150.2,203,149.8,203,149.5,203L149.5,203z"/>
	<path class="st0" d="M149.5,165c0.3,0,0.7,0,1,0C150.2,165,149.8,165,149.5,165L149.5,165z"/>
	<path class="st0" d="M149.5,127c0.3,0,0.7,0,1,0C150.2,127,149.8,127,149.5,127L149.5,127z"/>
	<path class="st0" d="M149.5,89c0.3,0,0.7,0,1,0C150.2,89,149.8,89,149.5,89L149.5,89z"/>
	<path class="st0" d="M150.5,51c-0.3,0-0.7,0-1,0l0,0C149.8,51,150.2,51,150.5,51z"/>
	<path class="st0" d="M150.5,51L150.5,51c-0.3,0-0.7,0-1,0C149.8,51,150.2,51,150.5,51z"/>
	<path class="st0" d="M150.5,89L150.5,89c-0.3,0-0.7,0-1,0C149.8,89,150.2,89,150.5,89z"/>
	<path class="st0" d="M150.5,127L150.5,127c-0.3,0-0.7,0-1,0C149.8,127,150.2,127,150.5,127z"/>
	<path class="st0" d="M150.5,165L150.5,165c-0.3,0-0.7,0-1,0C149.8,165,150.2,165,150.5,165z"/>
	<path class="st0" d="M150.5,203L150.5,203c-0.3,0-0.7,0-1,0C149.8,203,150.2,203,150.5,203z"/>
	<path class="st0" d="M150.5,279L150.5,279c-0.3,0-0.7,0-1,0C149.8,279,150.2,279,150.5,279z"/>
	<path class="st0" d="M150.5,317L150.5,317c-0.3,0-0.7,0-1,0C149.8,317,150.2,317,150.5,317z"/>
	<path class="st0" d="M150.5,355L150.5,355c-0.3,0-0.7,0-1,0C149.8,355,150.2,355,150.5,355z"/>
	<path class="st0" d="M150.5,393L150.5,393c-0.3,0-0.7,0-1,0C149.8,393,150.2,393,150.5,393z"/>
	<path class="st0" d="M150.5,431L150.5,431c-0.3,0-0.7,0-1,0C149.8,431,150.2,431,150.5,431z"/>
	<path class="st0" d="M150.5,469L150.5,469c-0.3,0-0.7,0-1,0C149.8,469,150.2,469,150.5,469z"/>
	<path class="st0" d="M150.5,507L150.5,507c-0.3,0-0.7,0-1,0C149.8,507,150.2,507,150.5,507z"/>
</g>
<g id="Capa_2">
</g>
</svg>
