<?xml version="1.0" encoding="utf-8"?>
<!-- Generator: Adobe Illustrator 24.1.1, SVG Export Plug-In . SVG Version: 6.00 Build 0)  -->
<svg version="1.1" id="Capa_1" xmlns="http://www.w3.org/2000/svg" xmlns:xlink="http://www.w3.org/1999/xlink" x="0px" y="0px"
	 viewBox="0 0 809 500" style="enable-background:new 0 0 809 500;" xml:space="preserve">
<style type="text/css">
	.st0{fill:#02267C;}
</style>
<path class="st0" d="M809.3,452.3c0-0.5,0-1.2,0-1.8C809.3,451.1,809.3,451.8,809.3,452.3c-1.1,17.6-15.7,31.7-33.4,31.7
	c-17.9,0-32.5-14.1-33.4-31.7c0-0.5,0-1.2,0-1.8c0,0.5,0,1.2,0,1.8c-0.9,17.6-15.5,31.7-33.4,31.7c-17.9,0-32.5-14.1-33.4-31.7
	c0-0.5,0-1.2,0-1.8c0,0.5,0,1.2,0,1.8c-0.9,17.6-15.5,31.7-33.4,31.7s-32.5-14.1-33.4-31.7c0-0.5,0-1.2,0-1.8c0,0.5,0,1.2,0,1.8
	c-0.9,17.6-15.5,31.7-33.4,31.7s-32.5-14.1-33.4-31.7l0,0c-0.9,17.6-15.5,31.7-33.4,31.7c-17.9,0-32.5-14.1-33.4-31.7
	c0-0.5,0-1.2,0-1.8c0,0.5,0,1.2,0,1.8c-0.9,17.6-15.5,31.7-33.4,31.7c-17.9,0-32.5-14.1-33.4-31.7c0-0.5,0-1.2,0-1.8
	c0,0.5,0,1.2,0,1.8c-0.9,17.6-15.5,31.7-33.4,31.7c-17.9,0-32.5-14.1-33.4-31.7c0-0.5,0-1.2,0-1.8c0,0.5,0,1.2,0,1.8
	c-0.9,17.6-15.5,31.7-33.4,31.7c-17.9,0-32.5-14.1-33.4-31.7c0-0.5,0-1.2,0-1.8c0,0.5,0,1.2,0,1.8c-0.9,17.6-15.5,31.7-33.4,31.7
	s-32.5-14.1-33.4-31.7c0-0.5,0-1.2,0-1.8c0,0.5,0,1.2,0,1.8c-0.9,17.6-15.5,31.7-33.4,31.7s-32.5-14.1-33.4-31.7c0-0.5,0-1.2,0-1.8
	c0,0.5,0,1.2,0,1.8c-0.9,17.6-15.5,31.7-33.4,31.7s-32.5-14.1-33.4-31.7c0-0.5,0-1.2,0-1.8c0,0.5,0,1.2,0,1.8
	C73,469.9,58.4,484,40.4,484C22,484,7,469,7,450.6c0-18.5,15-33.4,33.4-33.4C22,417.1,7,402.2,7,383.7s15-33.4,33.4-33.4
	C22,350.3,7,335.3,7,316.9c0-18.5,15-33.4,33.4-33.4C22,283.4,7,268.5,7,250s15-33.4,33.4-33.4C22,216.6,7,201.6,7,183.1
	s15-33.4,33.4-33.4C22,149.7,7,134.8,7,116.3s15-33.4,33.4-33.4C22,82.9,7,67.9,7,49.4S22,16,40.4,16C58.4,16,73,30.1,73.9,47.7
	c0,0.5,0,1.2,0,1.8c0-0.5,0-1.2,0-1.8C74.7,30.1,89.3,16,107.3,16s32.5,14.1,33.4,31.7c0,0.5,0,1.2,0,1.8c0-0.5,0-1.2,0-1.8
	c0.9-17.6,15.5-31.7,33.4-31.7s32.5,14.1,33.4,31.7c0,0.5,0,1.2,0,1.8c0-0.5,0-1.2,0-1.8C208.5,30.1,223.1,16,241,16
	s32.5,14.1,33.4,31.7c0,0.5,0,1.2,0,1.8c0-0.5,0-1.2,0-1.8c0.9-17.6,15.5-31.7,33.4-31.7c17.9,0,32.5,14.1,33.4,31.7
	c0,0.5,0,1.2,0,1.8c0-0.5,0-1.2,0-1.8c0.9-17.6,15.5-31.7,33.4-31.7c17.9,0,32.5,14.1,33.4,31.7c0,0.5,0,1.2,0,1.8
	c0-0.5,0-1.2,0-1.8C409,30.1,423.6,16,441.6,16c17.9,0,32.5,14.1,33.4,31.7c0,0.5,0,1.2,0,1.8c0-0.5,0-1.2,0-1.8
	c0.9-17.6,15.5-31.7,33.4-31.7c17.9,0,32.5,14.1,33.4,31.7c0,0.5,0,1.2,0,1.8c0-0.5,0-1.2,0-1.8c0.9-17.6,15.5-31.7,33.4-31.7
	s32.5,14.1,33.4,31.7c0,0.5,0,1.2,0,1.8c0-0.5,0-1.2,0-1.8c0.9-17.6,15.5-31.7,33.4-31.7s32.5,14.1,33.4,31.7c0,0.5,0,1.2,0,1.8
	c0-0.5,0-1.2,0-1.8C676.5,30.1,691.1,16,709,16c17.9,0,32.5,14.1,33.4,31.7c0,0.5,0,1.2,0,1.8c0-0.5,0-1.2,0-1.8
	c0.9-17.6,15.5-31.7,33.4-31.7c17.9,0,32.5,14.1,33.4,31.7c0,0.5,0,1.2,0,1.8c0-0.5,0-1.2,0-1.8c0.9-17.6,15.5-31.7,33.4-31.7
	s32.5,14.1,33.4,31.7c0,0.5,0,1.2,0,1.8c0-0.5,0-1.2,0-1.8C877,30.1,891.6,16,909.6,16C928,16,943,31,943,49.4s-15,33.4-33.4,33.4
	c18.5,0,33.4,15,33.4,33.4s-15,33.4-33.4,33.4c18.5,0,33.4,15,33.4,33.4s-15,33.4-33.4,33.4c18.5,0,33.4,15,33.4,33.4
	s-15,33.4-33.4,33.4c18.5,0,33.4,15,33.4,33.4c0,18.5-15,33.4-33.4,33.4c18.5,0,33.4,15,33.4,33.4s-15,33.4-33.4,33.4
	c18.5,0,33.4,15,33.4,33.4c0,18.5-15,33.4-33.4,33.4c-17.9,0-32.5-14.1-33.4-31.7c0-0.5,0-1.2,0-1.8c0,0.5,0,1.2,0,1.8
	c-0.9,17.6-15.5,31.7-33.4,31.7S810.2,469.9,809.3,452.3z"/>
<path class="st0" d="M475,249.1c0,0.5,0,1.2,0,1.8C475,250.4,475,249.6,475,249.1L475,249.1z"/>
<path class="st0" d="M475,249.1c0,0.5,0,1.2,0,1.8C475,250.4,475,249.6,475,249.1L475,249.1z"/>
<path class="st0" d="M475,249.1c0,0.5,0,1.2,0,1.8C475,250.4,475,249.6,475,249.1L475,249.1z"/>
<path class="st0" d="M475,249.1c0,0.5,0,1.2,0,1.8C475,250.4,475,249.6,475,249.1L475,249.1z"/>
<path class="st0" d="M475,249.1c0,0.5,0,1.2,0,1.8C475,250.4,475,249.6,475,249.1L475,249.1z"/>
<path class="st0" d="M475,249.1c0,0.5,0,1.2,0,1.8C475,250.4,475,249.6,475,249.1L475,249.1z"/>
<path class="st0" d="M475,249.1c0,0.5,0,1.2,0,1.8C475,250.4,475,249.6,475,249.1L475,249.1z"/>
<path class="st0" d="M475,249.1c0,0.5,0,1.2,0,1.8C475,250.4,475,249.6,475,249.1L475,249.1z"/>
<path class="st0" d="M475,249.1c0,0.5,0,1.2,0,1.8C475,250.4,475,249.6,475,249.1L475,249.1z"/>
<path class="st0" d="M475,249.1c0,0.5,0,1.2,0,1.8C475,250.4,475,249.6,475,249.1L475,249.1z"/>
<path class="st0" d="M475,249.1c0,0.5,0,1.2,0,1.8C475,250.4,475,249.6,475,249.1L475,249.1z"/>
<path class="st0" d="M475,249.1c0,0.5,0,1.2,0,1.8C475,250.4,475,249.6,475,249.1L475,249.1z"/>
<path class="st0" d="M475,250.9c0-0.5,0-1.2,0-1.8l0,0C475,249.6,475,250.4,475,250.9z"/>
<path class="st0" d="M475,250.9L475,250.9c0-0.5,0-1.2,0-1.8C475,249.6,475,250.4,475,250.9z"/>
<path class="st0" d="M475,250.9L475,250.9c0-0.5,0-1.2,0-1.8C475,249.6,475,250.4,475,250.9z"/>
<path class="st0" d="M475,250.9L475,250.9c0-0.5,0-1.2,0-1.8C475,249.6,475,250.4,475,250.9z"/>
<path class="st0" d="M475,250.9L475,250.9c0-0.5,0-1.2,0-1.8C475,249.6,475,250.4,475,250.9z"/>
<path class="st0" d="M475,250.9L475,250.9c0-0.5,0-1.2,0-1.8C475,249.6,475,250.4,475,250.9z"/>
<path class="st0" d="M475,250.9L475,250.9c0-0.5,0-1.2,0-1.8C475,249.6,475,250.4,475,250.9z"/>
<path class="st0" d="M475,250.9L475,250.9c0-0.5,0-1.2,0-1.8C475,249.6,475,250.4,475,250.9z"/>
<path class="st0" d="M475,250.9L475,250.9c0-0.5,0-1.2,0-1.8C475,249.6,475,250.4,475,250.9z"/>
<path class="st0" d="M475,250.9L475,250.9c0-0.5,0-1.2,0-1.8C475,249.6,475,250.4,475,250.9z"/>
<path class="st0" d="M475,250.9L475,250.9c0-0.5,0-1.2,0-1.8C475,249.6,475,250.4,475,250.9z"/>
<path class="st0" d="M475,250.9L475,250.9c0-0.5,0-1.2,0-1.8C475,249.6,475,250.4,475,250.9z"/>
<path class="st0" d="M475,250.9L475,250.9c0-0.5,0-1.2,0-1.8C475,249.6,475,250.4,475,250.9z"/>
</svg>
